<svg width="128" height="128" viewBox="0 0 128 128" fill="none" xmlns="http://www.w3.org/2000/svg">
<path fill-rule="evenodd" clip-rule="evenodd" d="M31.6355 12.636C33.3234 10.9482 35.6126 10 37.9995 10H50.6695C50.1781 10.7429 49.8919 11.6334 49.8919 12.5908C49.8919 15.1877 51.9971 17.2928 54.594 17.2928H73.4022C75.999 17.2928 78.1042 15.1877 78.1042 12.5908C78.1042 11.6334 77.8181 10.7429 77.3267 10H89.9995C92.3865 10 94.6756 10.9482 96.3635 12.636C98.0513 14.3239 98.9995 16.6131 98.9995 19V110C98.9995 112.387 98.0513 114.676 96.3635 116.364C94.6756 118.052 92.3865 119 89.9995 119H37.9995C35.6126 119 33.3234 118.052 31.6355 116.364C29.9477 114.676 28.9995 112.387 28.9995 110V19C28.9995 16.6131 29.9477 14.3239 31.6355 12.636ZM37.9995 2C33.4908 2 29.1668 3.79107 25.9787 6.97918C22.7906 10.1673 20.9995 14.4913 20.9995 19V110C20.9995 114.509 22.7906 118.833 25.9787 122.021C29.1668 125.209 33.4908 127 37.9995 127H89.9995C94.5082 127 98.8322 125.209 102.02 122.021C105.208 118.833 107 114.509 107 110V19C107 14.4913 105.208 10.1673 102.02 6.97918C98.8322 3.79107 94.5082 2 89.9995 2H37.9995Z" fill="white" fill-opacity="0.25"/>
<path d="M64 106V106.063" stroke="white" stroke-opacity="0.25" stroke-width="8.77714" stroke-linecap="round" stroke-linejoin="round"/>
</svg>
