<svg width="20" height="20" viewBox="0 0 20 20" fill="none" xmlns="http://www.w3.org/2000/svg">
<path d="M1.59949 14.5996C1.93086 14.5996 2.20007 14.8688 2.20007 15.2002V17.0996H4.09949C4.43086 17.0996 4.70007 17.3688 4.70007 17.7002C4.69997 18.0315 4.43079 18.2998 4.09949 18.2998H1.59949C1.26839 18.2996 0.999983 18.0313 0.999878 17.7002V15.2002C0.999878 14.869 1.26833 14.5999 1.59949 14.5996ZM18.4999 14.6006C18.8312 14.6006 19.1005 14.8688 19.1005 15.2002V17.7002C19.1004 18.0315 18.8312 18.2998 18.4999 18.2998H15.9999C15.6686 18.2997 15.4003 18.0315 15.4003 17.7002C15.4003 17.3689 15.6686 17.1007 15.9999 17.1006H17.9003V15.2002C17.9003 14.8689 18.1686 14.6007 18.4999 14.6006ZM4.09949 1.7998C4.43086 1.7998 4.70007 2.06902 4.70007 2.40039C4.69986 2.73158 4.43073 3 4.09949 3H2.20007V4.90039C2.19986 5.23158 1.93073 5.5 1.59949 5.5C1.26846 5.49975 1.00009 5.23143 0.999878 4.90039V2.40039C0.999878 2.06917 1.26833 1.80006 1.59949 1.7998H4.09949ZM18.4003 1.7998C18.7315 1.79992 18.9999 2.06909 18.9999 2.40039V4.90039C18.9997 5.23151 18.7314 5.49988 18.4003 5.5C18.069 5.5 17.7999 5.23158 17.7997 4.90039V3H15.9003C15.569 3 15.2999 2.73158 15.2997 2.40039C15.2997 2.06902 15.5689 1.7998 15.9003 1.7998H18.4003Z" fill="black" fill-opacity="0.9"/>
<path d="M9.07184 4.40479C9.32364 4.4298 9.56029 4.54167 9.74079 4.72217C9.94697 4.92842 10.063 5.20788 10.0631 5.49951V7.29834C10.1048 7.27421 10.1482 7.25241 10.1929 7.23389C10.3262 7.17878 10.4687 7.14994 10.6129 7.1499L10.7213 7.15479C10.8286 7.16538 10.9338 7.1925 11.0338 7.23389C11.1671 7.28912 11.2881 7.37016 11.3902 7.47217C11.4923 7.57432 11.5742 7.69613 11.6295 7.82959C11.6371 7.84808 11.6424 7.8674 11.649 7.88623C11.829 7.76523 12.0431 7.70071 12.2632 7.70068L12.3716 7.70557C12.6235 7.73055 12.861 7.84242 13.0416 8.02295C13.1591 8.14071 13.2455 8.28289 13.2994 8.43701C13.4793 8.31613 13.6928 8.2506 13.9127 8.25049L14.022 8.25537C14.2738 8.28039 14.5105 8.39234 14.691 8.57275C14.8971 8.77897 15.0132 9.05854 15.0132 9.3501V11.8257L15.0084 12.0024C14.9645 12.8861 14.5949 13.7254 13.9664 14.354C13.296 15.0243 12.386 15.3998 11.4381 15.3999H10.3384C10.3225 15.3999 10.3067 15.3976 10.2916 15.395C9.75536 15.3709 9.23019 15.2283 8.75641 14.9731C8.23541 14.6925 7.79196 14.2867 7.46637 13.7925L7.4654 13.7915L7.35797 13.6255C7.26902 13.4889 7.07207 13.1555 6.76911 12.6274L5.54059 10.4595C5.40043 10.2101 5.36296 9.91574 5.4361 9.63916C5.5095 9.36228 5.6885 9.12437 5.93415 8.97705L6.02887 8.92529C6.25525 8.81396 6.51033 8.77038 6.76227 8.80127C7.0503 8.83664 7.31867 8.9673 7.52399 9.17236L7.86286 9.51123V5.49951C7.8629 5.20792 7.97899 4.92841 8.18512 4.72217C8.39142 4.51587 8.6717 4.3999 8.96344 4.3999L9.07184 4.40479Z" fill="black" fill-opacity="0.9"/>
</svg>
