<svg width="266" height="206" viewBox="0 0 266 206" fill="none" xmlns="http://www.w3.org/2000/svg">
<path d="M100.939 0L165.061 0C179.992 0 185.406 1.5546 190.865 4.47382C196.323 7.39304 200.607 11.6769 203.526 17.1354C206.445 22.5938 208 28.0081 208 42.9389V107.061C208 121.992 206.445 127.406 203.526 132.865C200.607 138.323 196.323 142.607 190.865 145.526C185.406 148.445 179.992 150 165.061 150H100.939C86.0081 150 80.5938 148.445 75.1354 145.526C69.6769 142.607 65.393 138.323 62.4738 132.865C59.5546 127.406 58 121.992 58 107.061V42.9389C58 28.0081 59.5546 22.5938 62.4738 17.1354C65.393 11.6769 69.6769 7.39304 75.1354 4.47382C80.5938 1.5546 86.0081 0 100.939 0Z" fill="black"/>
<path d="M100.939 0L165.061 0C179.992 0 185.406 1.5546 190.865 4.47382C196.323 7.39304 200.607 11.6769 203.526 17.1354C206.445 22.5938 208 28.0081 208 42.9389V107.061C208 121.992 206.445 127.406 203.526 132.865C200.607 138.323 196.323 142.607 190.865 145.526C185.406 148.445 179.992 150 165.061 150H100.939C86.0081 150 80.5938 148.445 75.1354 145.526C69.6769 142.607 65.393 138.323 62.4738 132.865C59.5546 127.406 58 121.992 58 107.061V42.9389C58 28.0081 59.5546 22.5938 62.4738 17.1354C65.393 11.6769 69.6769 7.39304 75.1354 4.47382C80.5938 1.5546 86.0081 0 100.939 0Z" fill="url(#paint0_linear_9707_125502)"/>
<path d="M141.372 100.415L123.538 51.1289L102.702 61.9166L117.139 95.4307L123.068 102.134L141.372 100.415Z" fill="#CD933C" fill-opacity="0.4"/>
<path fill-rule="evenodd" clip-rule="evenodd" d="M95.7224 48.3556C99.9581 41.0191 109.339 38.5055 116.676 42.7412C124.012 46.9769 126.526 56.358 122.29 63.6945L101.838 99.1182C97.6025 106.455 88.2214 108.968 80.8849 104.733C73.5484 100.497 71.0348 91.1158 75.2705 83.7793L95.7224 48.3556ZM138.213 48.4575C142.449 41.121 151.83 38.6073 159.166 42.843C166.503 47.0788 169.016 56.4599 164.781 63.7964L144.329 99.2201C140.093 106.557 130.712 109.07 123.376 104.834C116.039 100.599 113.525 91.2176 117.761 83.8812L138.213 48.4575ZM175.912 73.8745C166.515 73.8745 158.898 81.4918 158.898 90.8883C158.898 100.285 166.515 107.902 175.912 107.902C185.308 107.902 192.925 100.285 192.925 90.8883C192.925 81.4918 185.308 73.8745 175.912 73.8745Z" fill="url(#paint1_linear_9707_125502)"/>
<g clip-path="url(#clip0_9707_125502)">
<path d="M61.7337 175.172H57.4672C55.4176 175.172 53.7053 176.744 53.5172 178.799L52.2 192.143C51.7096 196.762 53.6434 206 65.2949 206C76.9464 206 80.483 196.404 80.7948 191.606L82.3112 175.173H77.9383C75.8776 175.173 74.1597 176.762 73.9852 178.829L72.9108 190.395C72.8219 193.085 71.3611 198.466 66.2304 198.466C61.099 198.466 60.0833 194.252 60.2174 192.143L61.7337 175.172Z" fill="#01091D"/>
<path d="M1.42589 187.965C0.998998 193.087 0 205.075 0 205.075H8.45776L9.84556 188.433C10.0685 185.756 12.2649 181.566 16.0935 181.566C20.4338 181.566 21.0416 185.834 21.1242 187.968L19.6983 205.076H28.379L29.8049 187.968C30.0945 185.834 31.7196 181.566 35.902 181.566C40.0869 181.566 41.047 186.145 41.0057 188.433L39.6179 205.075H47.9646L49.2849 189.246C50.0983 179.47 43.6536 174 36.5321 174C30.8348 174 27.2094 177.258 26.1088 178.889C25.7899 177.374 22.066 174 16.2783 174C6.30821 174 1.85358 182.846 1.42589 187.965Z" fill="#01091D"/>
<path d="M145.452 175.259H141.187C139.136 175.259 137.425 176.831 137.236 178.886L135.957 192.143C135.467 196.762 137.4 206 149.052 206C160.703 206 164.24 196.404 164.552 191.606L166.03 175.26H161.658C159.596 175.26 157.878 176.849 157.705 178.916L156.668 190.395C156.579 193.086 155.118 198.467 149.987 198.467C144.856 198.467 143.841 194.252 143.974 192.144L145.452 175.259Z" fill="#01091D"/>
<path d="M85.1822 187.965C84.7553 193.087 83.7563 205.074 83.7563 205.074H92.2141L93.6019 188.432C93.8257 185.755 96.0212 181.565 99.8498 181.565C104.19 181.565 104.798 185.833 104.881 187.967L103.455 205.076H112.135L113.562 187.968C113.851 185.834 115.476 181.566 119.658 181.566C123.843 181.566 124.804 186.145 124.762 188.433L123.374 205.075H131.721L133.042 189.246C133.855 179.47 127.41 174 120.288 174C114.591 174 110.966 177.258 109.865 178.889C109.546 177.374 105.822 174 100.035 174C90.0645 174 85.6099 182.846 85.1822 187.965Z" fill="#01091D"/>
<path d="M248.896 185.815L247.675 186.77C247.035 187.273 246.43 187.749 245.4 187.749L234.232 187.758L233.931 191.4H246.237C247.913 191.4 248.972 190.753 250.137 189.708L254.478 185.815H248.896Z" fill="#01091D"/>
<path d="M218.831 192.844L215.289 195.224L216.641 175.935L216.68 175.356H213.307L213.277 175.821L211.825 196.503C211.796 196.89 211.771 197.257 211.747 197.6L211.352 202.518L219.824 195.939L218.831 192.844Z" fill="#01091D"/>
<path d="M219.247 188.572L219.216 188.877L222.641 188.388L222.659 188.2C222.997 184.707 222.516 181.279 221.69 177.206L221.646 176.991L218.428 177.358L218.477 177.613C219.055 180.612 219.666 184.568 219.247 188.572Z" fill="#01091D"/>
<path d="M264.132 182.621L264.712 174.769H255.465C254.131 174.769 253.012 175.817 252.919 177.156L252.378 184.465H262.167C263.197 184.464 264.06 183.654 264.132 182.621ZM261.119 177.804L260.843 181.432H255.869L256.146 177.804H261.119Z" fill="#01091D"/>
<path d="M207.626 174.24V174.472L207.4 177.635H202.924L202.693 180.964H207.17L206.519 190.263L202.01 190.281L201.789 193.715H202.043C202.738 193.715 203.366 193.712 204.03 193.711C204.707 193.708 205.421 193.706 206.281 193.706L205.979 197.865C205.976 197.909 205.974 197.953 205.971 197.999C205.942 198.466 205.913 198.949 205.34 199.465L201.684 201.665L201.35 205.749L206.762 202.654L206.77 202.65C208.732 201.433 209.168 199.582 209.406 195.898L210.265 183.666L210.926 174.24H207.626Z" fill="#01091D"/>
<path d="M229.171 193.316L228.935 192.653L228.721 193.324C228.324 194.564 227.823 195.691 227.342 196.725L227.304 196.805L227.327 196.891C228.784 202.219 232.448 204.799 232.604 204.907L232.94 205.139L233.331 200.654L233.247 200.574C231.718 199.133 230.424 196.827 229.171 193.316Z" fill="#01091D"/>
<path d="M227.844 190.374C228.883 186.601 229.638 182.161 230.366 175.52L230.443 174.582L227.41 174.508L226.941 174.496L226.876 175.317C226.308 180.998 225.551 186.923 223.875 191.769C222.242 196.489 219.893 199.77 216.485 202.093L215.916 202.479L216.472 202.928C216.71 203.12 217.072 203.456 217.418 203.804C217.777 204.166 218.055 204.484 218.166 204.656L218.481 205.14L218.919 204.802C222.125 202.353 224.525 199.158 226.257 195.027C227.034 193.012 227.833 190.404 227.841 190.379L227.844 190.374Z" fill="#01091D"/>
<path d="M248.621 182.081L248.917 178.643L249.185 174.826H239.969C238.634 174.826 237.515 175.875 237.422 177.215L236.89 184.79L245.686 184.791C247.225 184.791 248.487 183.626 248.621 182.081ZM245.592 177.862L245.311 181.876H240.368L240.648 177.862H245.592Z" fill="#01091D"/>
<path d="M251.167 204.807L260.855 204.781C262.186 204.778 263.301 203.728 263.394 202.395C263.4 202.33 263.957 195.821 264.105 193.447L264.121 193.192H251.977L251.167 204.807ZM254.97 196.322H260.507L260.133 201.673H254.595L254.97 196.322Z" fill="#01091D"/>
<path d="M236.175 195.615C235.989 198.803 235.633 204.494 235.629 204.551L235.613 204.807L247.304 204.773L248.113 193.189L238.653 193.246C237.34 193.255 236.252 194.295 236.175 195.615ZM244.617 196.322L244.243 201.643H239.045L239.418 196.322H244.617Z" fill="#01091D"/>
<path d="M256.194 187.502L251.844 191.257H265.639L266 187.502H256.194Z" fill="#01091D"/>
<path d="M195.191 174.977L195.231 174.399H191.834L191.793 174.863L191.636 176.953H187.725C187.742 176.719 187.757 176.521 187.774 176.311C187.8 175.976 187.83 175.595 187.873 174.977L187.913 174.399H184.556L184.538 174.867L184.382 176.953L180.237 176.965L180.023 180.071H199.359L199.577 176.952H195.042L195.191 174.977Z" fill="#01091D"/>
<path d="M178.111 192.522C178.199 191.287 178.241 190.629 178.272 190.149C178.32 189.393 178.345 189.014 178.481 187.402L178.487 187.332L178.454 187.27C177.965 186.33 177.465 185.627 177.064 185.063C176.849 184.76 176.661 184.495 176.507 184.242L176.555 183.557H178.956L179.186 180.259H176.785L177.206 174.239L173.836 174.254L173.415 180.255H169.869L169.631 180.258V180.318C169.485 180.397 169.383 180.548 169.372 180.723L169.174 183.556H173.07C171.767 188.101 169.679 192.732 167.829 195.156L167.61 195.443L167.812 195.759C168.157 196.293 168.68 197.336 168.879 197.978L169.196 199.002L169.797 198.152C170.672 196.921 171.602 195.19 172.516 193.094L171.724 204.417L171.684 204.996H175.059L175.087 204.53L176.127 189.714C176.295 190.02 176.47 190.303 176.64 190.581C177.023 191.204 177.386 191.793 177.647 192.579L178.111 192.522Z" fill="#01091D"/>
<path d="M191.238 197.757H198.102L198.317 194.64H189.79C189.808 194.583 189.826 194.523 189.845 194.468C189.963 194.093 190.019 193.913 190.03 193.872L190.106 193.572H186.494L186.444 193.746C186.431 193.79 186.287 194.238 186.2 194.505C186.184 194.554 186.17 194.6 186.157 194.64L177.75 194.643L177.535 197.759H184.565C184.405 197.988 184.233 198.209 184.051 198.421C182.914 199.737 180.647 200.854 177.316 201.741L177.151 201.785L176.927 205.161L177.517 205.017C182 203.927 185.119 202.358 186.791 200.352C187.243 199.808 187.64 199.224 187.995 198.577C189.576 201.774 192.339 203.941 196.213 205.019L196.412 205.075L198.102 205.354L198.389 202.032L198.079 201.965C194.992 201.315 192.637 199.863 191.238 197.757Z" fill="#01091D"/>
<path d="M193.675 192.135H194.551C195.983 192.135 197.183 191.01 197.283 189.575L197.834 181.989H183.37C182.035 181.989 180.915 183.039 180.821 184.38L180.303 191.557L180.263 192.136H188.273L188.274 192.132H190.562L191.093 186.867H187.934L187.694 189.237H183.778L184.1 184.863H194.248L193.911 189.456L193.675 192.135Z" fill="#01091D"/>
</g>
<defs>
<linearGradient id="paint0_linear_9707_125502" x1="84.8899" y1="20.777" x2="185.856" y2="125.343" gradientUnits="userSpaceOnUse">
<stop/>
<stop offset="1" stop-color="#000E2D"/>
</linearGradient>
<linearGradient id="paint1_linear_9707_125502" x1="108.074" y1="51.2256" x2="152.732" y2="79.5726" gradientUnits="userSpaceOnUse">
<stop stop-color="#FFD179"/>
<stop offset="1" stop-color="#FFBF5E"/>
</linearGradient>
<clipPath id="clip0_9707_125502">
<rect width="266" height="32" fill="white" transform="translate(0 174)"/>
</clipPath>
</defs>
</svg>
